<svg width="48" height="48" viewBox="0 0 48 48" fill="none" xmlns="http://www.w3.org/2000/svg">
<rect width="48" height="48" rx="24" fill="#64748B"/>
<g clip-path="url(#clip0_2_2285)">
<path fill-rule="evenodd" clip-rule="evenodd" d="M20.172 25.834L23.002 27.769L25.73 25.887L31.845 31.92C31.684 31.972 31.512 32 31.333 32H14.667C14.447 32 14.237 31.957 14.044 31.88L20.172 25.834V25.834ZM33 20.876V30.333C33 30.58 32.946 30.814 32.85 31.025L26.856 25.111L33 20.876ZM13 20.929L19.042 25.061L13.106 30.919C13.0357 30.7316 12.9998 30.5331 13 30.333V20.93V20.929ZM31.333 17C32.253 17 33 17.746 33 18.667V19.253L22.998 26.148L13 19.31V18.667C13 17.747 13.746 17 14.667 17H31.333V17Z" fill="#F8FAFC"/>
</g>
<defs>
<clipPath id="clip0_2_2285">
<rect width="24" height="16" fill="white" transform="translate(11.2 16)"/>
</clipPath>
</defs>
</svg>
