<svg width="48" height="48" viewBox="0 0 48 48" fill="none" xmlns="http://www.w3.org/2000/svg">
<path fill-rule="evenodd" clip-rule="evenodd" d="M20.4501 25.4229L23.4688 27.4869L26.3787 25.4795L32.9013 31.9147C32.7296 31.9701 32.5461 32 32.3552 32H14.5781C14.3435 32 14.1195 31.9541 13.9136 31.872L20.4501 25.4229V25.4229ZM34.1333 20.1344V30.2219C34.1333 30.4853 34.0757 30.7349 33.9733 30.96L27.5797 24.6517L34.1333 20.1344ZM12.8 20.1909L19.2448 24.5984L12.9131 30.8469C12.8381 30.6471 12.7998 30.4353 12.8 30.2219V20.192V20.1909ZM32.3552 16C33.3365 16 34.1333 16.7957 34.1333 17.7781V18.4032L23.4645 25.7579L12.8 18.464V17.7781C12.8 16.7968 13.5957 16 14.5781 16H32.3552V16Z" fill="#F8FAFC"/>
</svg>
