<svg width="48" height="48" viewBox="0 0 48 48" fill="none" xmlns="http://www.w3.org/2000/svg">
<rect width="48" height="48" rx="24" fill="#64748B"/>
<path d="M33.6157 17.8313C33.5145 17.6978 33.4063 17.5698 33.2917 17.4475C33.407 17.1423 33.4946 16.8274 33.5534 16.5067C33.7271 15.3334 33.5763 14.1352 33.1172 13.0405C33.1172 13.0405 31.7211 12.6072 28.5178 14.7488C27.1578 14.3759 25.7531 14.1885 24.3422 14.1917C22.9273 14.1893 21.5186 14.3767 20.1542 14.7488C16.9509 12.5824 15.5549 13.0405 15.5549 13.0405C15.1012 14.1236 14.9505 15.3083 15.1186 16.4695C15.1777 16.8036 15.2696 17.1312 15.3928 17.4475C15.2806 17.5713 15.1685 17.7075 15.0687 17.8313C14.1386 18.99 13.6449 20.4348 13.6727 21.9165C13.6698 22.2679 13.6864 22.6191 13.7226 22.9687C14.1214 28.4528 17.7984 29.7278 21.3009 30.124C20.8052 30.5818 20.4691 31.1845 20.3412 31.8447C20.2253 32.285 20.1708 32.739 20.1791 33.1941V34.8158C18.7844 34.9396 17.3535 34.7378 16.9097 33.5023C16.4334 32.3198 15.6434 31.2875 14.6238 30.5152C14.5492 30.4751 14.4783 30.4287 14.4119 30.3765C14.3223 30.1428 14.1637 29.9415 13.9568 29.799C13.7499 29.6565 13.5045 29.5794 13.2527 29.5781H13.2464C12.9169 29.5781 12.6009 29.7076 12.3673 29.9385C12.1337 30.1693 12.0017 30.4826 12 30.8098C11.9963 31.815 13.0096 32.4649 13.4247 32.6853C13.9096 33.1706 14.2997 33.741 14.5752 34.3676C15.0289 35.634 16.3563 37.559 20.1417 37.309L20.1442 37.4303L20.1492 37.7621C20.1492 38.0904 20.2805 38.4053 20.5143 38.6374C20.748 38.8696 21.0651 39 21.3957 39H27.2714C27.6019 39 27.919 38.8696 28.1527 38.6374C28.3865 38.4053 28.5178 38.0904 28.5178 37.7621C28.5178 37.7621 28.5278 33.8502 28.5278 33.1941C28.5361 32.7391 28.4816 32.285 28.3657 31.8447L28.3632 31.8373L28.3682 31.8447C28.357 31.8014 28.3408 31.7667 28.3283 31.7246C28.1895 31.1113 27.8681 30.5536 27.406 30.124L27.4209 30.15L27.396 30.1252C30.8985 29.7291 34.5506 28.4293 34.9494 22.9699C34.9856 22.6204 35.0022 22.2691 34.9993 21.9177C35.0214 20.439 34.5331 18.9973 33.6157 17.8325V17.8313Z" fill="#F8FAFC"/>
</svg>
