<svg width="48" height="48" viewBox="0 0 48 48" fill="none" xmlns="http://www.w3.org/2000/svg">
<rect width="48" height="48" rx="24" fill="#64748B"/>
<path d="M19.024 14.3097C19.775 14.5638 20.4894 14.9151 21.149 15.3546C22.0806 15.1168 23.0385 14.9973 24 14.999C24.993 14.999 25.951 15.1229 26.849 15.3536C27.5084 14.9145 28.2224 14.5636 28.973 14.3097C29.67 14.0729 30.663 13.6893 31.253 14.3416C31.653 14.7852 31.753 15.5285 31.824 16.0959C31.904 16.7293 31.923 17.5545 31.713 18.3736C32.516 19.4096 33 20.6454 33 21.9921C33 24.032 31.894 25.8033 30.257 27.0301C29.4692 27.613 28.5954 28.07 27.667 28.3847C27.881 28.8742 28 29.4157 28 29.9841V32.9812C28 33.2461 27.8946 33.5002 27.7071 33.6876C27.5196 33.8749 27.2652 33.9802 27 33.9802H21C20.7348 33.9802 20.4804 33.8749 20.2929 33.6876C20.1054 33.5002 20 33.2461 20 32.9812V31.9911C19.045 32.108 18.244 32.0041 17.563 31.7154C16.851 31.4137 16.355 30.9462 15.982 30.4986C15.628 30.075 15.242 29.12 14.684 28.9342C14.5594 28.8927 14.4441 28.8271 14.3449 28.7412C14.2456 28.6552 14.1643 28.5506 14.1055 28.4333C13.9868 28.1963 13.9672 27.9219 14.051 27.6704C14.1348 27.419 14.3152 27.2111 14.5524 27.0925C14.7896 26.9739 15.0643 26.9543 15.316 27.038C15.982 27.2598 16.416 27.7394 16.713 28.125C17.193 28.7444 17.583 29.5536 18.343 29.8762C18.656 30.0091 19.115 30.096 19.833 29.9981L20 29.9641C20.0019 29.4205 20.1152 28.883 20.333 28.3847C19.4046 28.07 18.5308 27.613 17.743 27.0301C16.106 25.8033 15 24.033 15 21.9921C15 20.6474 15.483 19.4126 16.284 18.3776C16.074 17.5585 16.092 16.7313 16.172 16.0969L16.177 16.0589C16.25 15.4775 16.335 14.7932 16.743 14.3416C17.333 13.6893 18.327 14.0739 19.023 14.3107L19.024 14.3097Z" fill="#F8FAFC"/>
</svg>
