<svg width="20" height="24" viewBox="0 0 20 24" fill="none" xmlns="http://www.w3.org/2000/svg">
<path d="M2.05714 15.0479V4.28238H4.59433L4.60127 6.11168C4.82555 5.49491 5.19702 5.01363 5.71567 4.66787C6.23432 4.31743 6.85343 4.14221 7.573 4.14221C8.30192 4.14221 8.91636 4.31976 9.41632 4.67488C9.92095 5.02532 10.2761 5.50425 10.4817 6.11168H10.5938C10.8321 5.5136 11.2339 5.037 11.7993 4.68188C12.3694 4.3221 13.0445 4.14221 13.8249 4.14221C14.8154 4.14221 15.6238 4.45527 16.2499 5.08139C16.876 5.70751 17.1891 6.62099 17.1891 7.82183V15.0479H14.6449L14.6424 8.23871C14.6424 7.57054 14.4673 7.05787 14.1122 6.74948C13.7571 6.43642 13.3226 6.27989 12.8086 6.27989C12.1965 6.27989 11.7175 6.47147 11.3718 6.85461C11.0307 7.23309 10.8601 7.72604 10.8601 8.33347V15.0479H8.37201V8.10919C8.37201 7.55316 8.20379 7.10927 7.86737 6.77752C7.53562 6.44577 7.10108 6.27989 6.56373 6.27989C6.19928 6.27989 5.86752 6.37334 5.56848 6.56024C5.26944 6.74247 5.03114 7.0018 4.85358 7.33822C4.67603 7.66997 4.58725 8.05779 4.58725 8.50168V15.0479H3.3222H2.05714Z" fill="#F8FAFC"/>
<path d="M19.3032 13.085V15.0475H13.1144V13.085H19.3032ZM14.6424 10.5058H17.1795V20.6125C17.1795 20.9536 17.2309 21.2152 17.3337 21.3974C17.4412 21.575 17.5814 21.6965 17.7543 21.7619C17.9272 21.8273 18.1187 21.86 18.329 21.86C18.4879 21.86 18.6327 21.8483 18.7635 21.825C18.899 21.8016 19.0018 21.7806 19.0719 21.7619L19.4995 23.7454C19.364 23.7921 19.1701 23.8435 18.9177 23.8996C18.6701 23.9557 18.3664 23.9884 18.0066 23.9977C17.3711 24.0164 16.7987 23.9206 16.2894 23.7103C15.7801 23.4954 15.3759 23.1637 15.0769 22.7151C14.7825 22.2665 14.6377 21.7058 14.6424 21.033V10.5058Z" fill="#F8FAFC"/>
<path d="M2.05714 4.28238H4.59433V15.6647C4.59433 16.4403 4.44715 17.0805 4.15278 17.5851C3.85841 18.0897 3.43321 18.4659 2.87717 18.7135C2.32114 18.9612 1.64596 19.085 0.851629 19.085C0.758178 19.085 0.671736 19.0826 0.592303 19.078C0.51287 19.078 0.426428 19.0756 0.332977 19.071V17.0034C0.403065 17.008 0.466145 17.0104 0.522215 17.0104C0.578286 17.015 0.636692 17.0174 0.697435 17.0174C1.18338 17.0174 1.53148 16.8982 1.74175 16.6599C1.95201 16.4263 2.05714 16.0829 2.05714 15.6296V4.28238ZM3.31873 2.75446C2.91222 2.75446 2.56411 2.62129 2.27442 2.35496C1.98939 2.08395 1.84688 1.75921 1.84688 1.38073C1.84688 0.997587 1.98939 0.672845 2.27442 0.40651C2.56411 0.135503 2.91222 0 3.31873 0C3.72057 0 4.064 0.135503 4.34902 0.40651C4.63872 0.672845 4.78357 0.997587 4.78357 1.38073C4.78357 1.75921 4.63872 2.08395 4.34902 2.35496C4.064 2.62129 3.72057 2.75446 3.31873 2.75446Z" fill="#F8FAFC"/>
</svg>
