<svg width="39" height="48" viewBox="0 0 39 48" fill="none" xmlns="http://www.w3.org/2000/svg">
<path d="M3.44833 30.0958V8.56476H8.52271L8.53658 12.2234C8.98514 10.9898 9.72808 10.0273 10.7654 9.33573C11.8027 8.63485 13.0409 8.28441 14.48 8.28441C15.9379 8.28441 17.1668 8.63952 18.1667 9.34975C19.176 10.0506 19.8862 11.0085 20.2974 12.2234H20.5216C20.9982 11.0272 21.8019 10.074 22.9327 9.36377C24.0728 8.6442 25.4231 8.28441 26.9838 8.28441C28.9649 8.28441 30.5816 8.91053 31.8339 10.1628C33.0861 11.415 33.7122 13.242 33.7122 15.6437V30.0958H28.6238L28.6188 16.4774C28.6188 15.1411 28.2687 14.1157 27.5585 13.499C26.8483 12.8728 25.9792 12.5598 24.9512 12.5598C23.727 12.5598 22.7691 12.9429 22.0776 13.7092C21.3954 14.4662 21.0543 15.4521 21.0543 16.6669V30.0958H16.0781V16.2184C16.0781 15.1063 15.7416 14.2185 15.0688 13.555C14.4053 12.8915 13.5362 12.5598 12.4615 12.5598C11.7326 12.5598 11.0691 12.7467 10.471 13.1205C9.87292 13.4849 9.39633 14.0036 9.04121 14.6764C8.6861 15.3399 8.50854 16.1156 8.50854 17.0034V30.0958H5.97844H3.44833Z" fill="#F8FAFC"/>
<path d="M37.9405 26.17V30.0949H25.5629V26.17H37.9405ZM28.6188 21.0115H33.6931V41.2249C33.6931 41.9071 33.7959 42.4304 34.0015 42.7949C34.2165 43.15 34.4968 43.393 34.8426 43.5238C35.1884 43.6546 35.5715 43.72 35.992 43.72C36.3098 43.72 36.5995 43.6967 36.8611 43.65C37.1321 43.6032 37.3377 43.5612 37.4779 43.5238L38.333 47.4908C38.062 47.5842 37.6741 47.687 37.1695 47.7992C36.6742 47.9113 36.0668 47.9767 35.3472 47.9954C34.0763 48.0328 32.9315 47.8412 31.9129 47.4207C30.8943 46.9908 30.0859 46.3273 29.4879 45.4302C28.8991 44.5331 28.6094 43.4117 28.6188 42.066V21.0115Z" fill="#F8FAFC"/>
<path d="M3.44833 8.56476H8.52271V31.3294C8.52271 32.8807 8.22834 34.1609 7.6396 35.1702C7.05086 36.1795 6.20046 36.9317 5.08839 37.427C3.97633 37.9223 2.62597 38.17 1.0373 38.17C0.850402 38.17 0.677518 38.1653 0.518652 38.1559C0.359785 38.1559 0.186902 38.1513 0 38.1419V34.0067C0.140176 34.0161 0.266335 34.0208 0.378476 34.0208C0.490617 34.0301 0.60743 34.0348 0.728916 34.0348C1.7008 34.0348 2.39701 33.7965 2.81754 33.3199C3.23807 32.8526 3.44833 32.1658 3.44833 31.2593V8.56476ZM5.9715 5.50892C5.15848 5.50892 4.46227 5.24259 3.88288 4.70992C3.31283 4.1679 3.02781 3.51842 3.02781 2.76147C3.02781 1.99517 3.31283 1.34569 3.88288 0.813021C4.46227 0.271007 5.15848 0 5.9715 0C6.77518 0 7.46204 0.271007 8.03209 0.813021C8.61149 1.34569 8.90119 1.99517 8.90119 2.76147C8.90119 3.51842 8.61149 4.1679 8.03209 4.70992C7.46204 5.24259 6.77518 5.50892 5.9715 5.50892Z" fill="#F8FAFC"/>
</svg>
